<svg width="427" height="426" viewBox="0 0 427 426" fill="none" xmlns="http://www.w3.org/2000/svg">
<path d="M371.365 234.667C366.672 234.667 361.765 233.173 357.072 232.107C347.575 229.983 338.237 227.203 329.125 223.787C319.228 220.186 308.349 220.373 298.582 224.312C288.815 228.25 280.849 235.662 276.218 245.12L271.525 254.933C250.806 243.183 231.666 228.846 214.565 212.267C197.986 195.165 183.649 176.025 171.898 155.307L181.712 150.827C191.17 146.196 198.582 138.23 202.52 128.463C206.458 118.696 206.645 107.817 203.045 97.92C199.657 88.726 196.878 79.319 194.725 69.76C193.658 65.0667 192.805 60.16 192.165 55.4667C189.574 40.4399 181.704 26.8318 169.97 17.0931C158.237 7.35438 143.412 2.12499 128.165 2.34666H63.9516C54.9329 2.33485 46.0135 4.22929 37.7781 7.90579C29.5427 11.5823 22.1774 16.9578 16.1649 23.68C10.0277 30.5846 5.45804 38.736 2.76979 47.5741C0.0815331 56.4122 -0.661552 65.7275 0.591585 74.88C12.1881 163.672 52.7561 246.158 116.005 309.547C179.394 372.796 261.879 413.363 350.672 424.96C353.441 425.172 356.222 425.172 358.992 424.96C374.723 424.983 389.912 419.211 401.658 408.747C408.38 402.734 413.756 395.369 417.432 387.134C421.109 378.898 423.003 369.979 422.992 360.96V296.96C422.877 282.219 417.677 267.971 408.27 256.621C398.864 245.271 385.828 237.516 371.365 234.667ZM381.818 362.667C381.811 365.644 381.181 368.586 379.969 371.305C378.756 374.024 376.988 376.459 374.778 378.453C372.44 380.584 369.658 382.167 366.632 383.09C363.607 384.012 360.414 384.25 357.285 383.787C277.675 373.389 203.69 337.109 146.725 280.533C89.711 223.519 53.1149 149.277 42.6183 69.3333C42.1548 66.2045 42.3929 63.0117 43.3153 59.9862C44.2377 56.9607 45.8214 54.1781 47.9516 51.84C49.9702 49.6032 52.4396 47.8194 55.1974 46.606C57.9552 45.3926 60.9387 44.7771 63.9516 44.8H127.952C132.883 44.6795 137.704 46.2717 141.593 49.3056C145.483 52.3395 148.201 56.6276 149.285 61.44C149.285 67.2 151.205 73.1733 152.485 78.9333C154.951 90.1091 158.23 101.089 162.298 111.787L132.432 125.867C127.298 128.223 123.309 132.52 121.338 137.813C119.205 143.007 119.205 148.833 121.338 154.027C152.041 219.792 204.906 272.657 270.672 303.36C275.865 305.494 281.691 305.494 286.885 303.36C292.179 301.39 296.475 297.4 298.832 292.267L312.272 262.4C323.278 266.413 334.538 269.692 345.978 272.213C351.525 273.493 357.498 274.56 363.258 275.413C368.071 276.497 372.359 279.215 375.393 283.105C378.427 286.994 380.019 291.815 379.898 296.747L381.818 362.667ZM255.952 0C251.045 0 245.925 0 241.018 0C235.36 0.480926 230.125 3.18977 226.464 7.53061C222.804 11.8715 221.017 17.4887 221.498 23.1467C221.979 28.8046 224.688 34.0398 229.029 37.7005C233.37 41.3612 238.987 43.1476 244.645 42.6667H255.952C289.899 42.6667 322.457 56.1523 346.461 80.157C370.466 104.162 383.952 136.719 383.952 170.667C383.952 174.507 383.952 178.133 383.952 181.973C383.479 187.601 385.257 193.187 388.896 197.506C392.535 201.825 397.738 204.525 403.365 205.013H405.072C410.412 205.035 415.566 203.053 419.516 199.458C423.466 195.864 425.924 190.919 426.405 185.6C426.405 180.693 426.405 175.573 426.405 170.667C426.405 125.44 408.453 82.0626 376.493 50.0625C344.533 18.0624 301.178 0.0565333 255.952 0ZM298.618 170.667C298.618 176.325 300.866 181.751 304.867 185.752C308.867 189.752 314.294 192 319.952 192C325.61 192 331.036 189.752 335.037 185.752C339.037 181.751 341.285 176.325 341.285 170.667C341.285 148.035 332.294 126.33 316.291 110.327C300.288 94.3238 278.583 85.3333 255.952 85.3333C250.294 85.3333 244.867 87.581 240.867 91.5817C236.866 95.5825 234.618 101.009 234.618 106.667C234.618 112.325 236.866 117.751 240.867 121.752C244.867 125.752 250.294 128 255.952 128C267.267 128 278.12 132.495 286.121 140.497C294.123 148.498 298.618 159.351 298.618 170.667Z" fill="black"/>
</svg>
